<svg width="48" height="49" viewBox="0 0 48 49" fill="none" xmlns="http://www.w3.org/2000/svg">
<path d="M24 0.758789C37.2548 0.758789 48 11.504 48 24.7588C48 38.0136 37.2548 48.7588 24 48.7588C10.7452 48.7588 0 38.0136 0 24.7588C0 11.504 10.7452 0.758789 24 0.758789ZM13.5 23.2588C12.6716 23.2588 12 23.9304 12 24.7588C12 25.5872 12.6716 26.2588 13.5 26.2588H30.8787L24.4393 32.6981C23.8536 33.2839 23.8536 34.2337 24.4393 34.8195C25.0251 35.4052 25.9749 35.4052 26.5607 34.8195L35.5607 25.8195C36.1464 25.2337 36.1464 24.2839 35.5607 23.6981L26.5607 14.6981C25.9749 14.1123 25.0251 14.1123 24.4393 14.6981C23.8536 15.2839 23.8536 16.2337 24.4393 16.8195L30.8787 23.2588H13.5Z" fill="#99CFE2"/>
</svg>
