<svg width="97" height="11" viewBox="0 0 97 11" fill="none" xmlns="http://www.w3.org/2000/svg">
<path fill-rule="evenodd" clip-rule="evenodd" d="M0 2.125L3.9375 1L7.875 2.125V5.51125C7.875 8.13813 4.88812 10 3.9375 10C2.98688 10 0 8.13813 0 5.51125V2.125ZM6.20113 4.54113C6.39639 4.34586 6.39639 4.02928 6.20113 3.83402C6.00587 3.63876 5.68929 3.63876 5.49402 3.83402L3.22258 6.10547L2.38295 5.26584C2.18769 5.07058 1.8711 5.07058 1.67584 5.26584C1.48058 5.4611 1.48058 5.77768 1.67584 5.97294L2.86902 7.16613C3.06429 7.36139 3.38087 7.36139 3.57613 7.16613L6.20113 4.54113Z" fill="black"/>
<path d="M14.2847 7.76465L17.5342 1.17969H18.6675L14.6338 9H13.8228L14.2847 7.76465ZM13.2158 1.17969L14.4028 7.85596L14.4888 9H13.7368L12.1577 1.17969H13.2158ZM20.4668 9.10742C20.0693 9.10026 19.7238 9.02148 19.4302 8.87109C19.1401 8.71712 18.902 8.51123 18.7158 8.25342C18.5332 7.99202 18.4025 7.69482 18.3237 7.36182C18.245 7.02881 18.2217 6.67969 18.2539 6.31445L18.2754 6.0835C18.3112 5.7111 18.4025 5.34587 18.5493 4.98779C18.6961 4.62614 18.8913 4.30029 19.1348 4.01025C19.3818 3.72021 19.6719 3.49105 20.0049 3.32275C20.3415 3.15088 20.7139 3.07031 21.1221 3.08105C21.5267 3.08822 21.8633 3.17415 22.1318 3.33887C22.4004 3.50358 22.6099 3.72201 22.7603 3.99414C22.9142 4.2627 23.0145 4.56527 23.061 4.90186C23.1076 5.23486 23.1112 5.57682 23.0718 5.92773L23.0127 6.37354H18.7964L18.9253 5.5625L22.1426 5.56787L22.1587 5.48193C22.1945 5.22412 22.1802 4.97526 22.1157 4.73535C22.0513 4.49544 21.9331 4.2985 21.7612 4.14453C21.5929 3.98698 21.3656 3.90462 21.0791 3.89746C20.7819 3.88672 20.5241 3.94759 20.3057 4.08008C20.0872 4.20898 19.9046 4.38444 19.7578 4.60645C19.611 4.82487 19.4946 5.06478 19.4087 5.32617C19.3263 5.58398 19.269 5.83643 19.2368 6.0835L19.2153 6.30908C19.1938 6.53825 19.201 6.76921 19.2368 7.00195C19.2726 7.2347 19.3407 7.44775 19.4409 7.64111C19.5448 7.83089 19.688 7.98665 19.8706 8.1084C20.0532 8.22656 20.2788 8.28923 20.5474 8.29639C20.8732 8.30355 21.165 8.23372 21.4229 8.08691C21.6842 7.93652 21.9224 7.74674 22.1372 7.51758L22.6904 7.99023C22.5221 8.2373 22.3216 8.44499 22.0889 8.61328C21.8561 8.78158 21.6019 8.9069 21.3262 8.98926C21.0505 9.07161 20.764 9.111 20.4668 9.10742ZM25.4834 4.14453L24.6401 9H23.668L24.6777 3.18848H25.623L25.4834 4.14453ZM27.3687 3.14014L27.2773 4.07471C27.2021 4.06038 27.1252 4.04785 27.0464 4.03711C26.9712 4.02637 26.896 4.021 26.8208 4.021C26.5881 4.01742 26.3786 4.05322 26.1924 4.12842C26.0098 4.20003 25.8468 4.30208 25.7036 4.43457C25.564 4.56706 25.444 4.72282 25.3438 4.90186C25.2471 5.08089 25.1701 5.27425 25.1128 5.48193L24.8066 5.64307C24.846 5.35303 24.9105 5.05583 25 4.75146C25.0931 4.4471 25.2202 4.16602 25.3813 3.9082C25.5461 3.65039 25.752 3.44271 25.999 3.28516C26.2497 3.1276 26.5505 3.0542 26.9014 3.06494C26.9801 3.06494 27.0571 3.0721 27.1323 3.08643C27.2111 3.10075 27.2899 3.11865 27.3687 3.14014ZM29.3506 3.18848L28.3408 9H27.3687L28.3784 3.18848H29.3506ZM28.5718 1.66309C28.5718 1.49479 28.6237 1.35514 28.7275 1.24414C28.835 1.12956 28.9728 1.07048 29.1411 1.06689C29.3094 1.06331 29.4473 1.11523 29.5547 1.22266C29.6657 1.33008 29.7194 1.46615 29.7158 1.63086C29.7158 1.79557 29.6603 1.93343 29.5493 2.04443C29.4419 2.15186 29.3058 2.20736 29.1411 2.21094C28.9764 2.21452 28.8403 2.16618 28.7329 2.06592C28.6255 1.96208 28.5718 1.8278 28.5718 1.66309ZM31.1821 9H30.21L31.2896 2.68896C31.3468 2.26286 31.4775 1.89404 31.6816 1.58252C31.8857 1.271 32.1525 1.03288 32.4819 0.868164C32.8149 0.69987 33.1999 0.619303 33.6367 0.626465C33.891 0.633626 34.1398 0.671224 34.3833 0.739258C34.6304 0.803711 34.8739 0.875326 35.1138 0.954102L34.8774 1.80273C34.6877 1.7168 34.4907 1.64697 34.2866 1.59326C34.0861 1.53955 33.882 1.5127 33.6743 1.5127C33.2769 1.50553 32.9564 1.60221 32.7129 1.80273C32.473 1.99967 32.3226 2.29329 32.2617 2.68359L31.1821 9ZM33.3467 3.18848L33.207 3.95117H30.1938L30.3335 3.18848H33.3467ZM35.2427 3.18848L34.2329 9H33.2607L34.2705 3.18848H35.2427ZM38.2666 9.10742C37.8691 9.10026 37.5236 9.02148 37.23 8.87109C36.9399 8.71712 36.7018 8.51123 36.5156 8.25342C36.333 7.99202 36.2023 7.69482 36.1235 7.36182C36.0448 7.02881 36.0215 6.67969 36.0537 6.31445L36.0752 6.0835C36.111 5.7111 36.2023 5.34587 36.3491 4.98779C36.4959 4.62614 36.6911 4.30029 36.9346 4.01025C37.1816 3.72021 37.4717 3.49105 37.8047 3.32275C38.1413 3.15088 38.5137 3.07031 38.9219 3.08105C39.3265 3.08822 39.6631 3.17415 39.9316 3.33887C40.2002 3.50358 40.4097 3.72201 40.5601 3.99414C40.714 4.2627 40.8143 4.56527 40.8608 4.90186C40.9074 5.23486 40.911 5.57682 40.8716 5.92773L40.8125 6.37354H36.5962L36.7251 5.5625L39.9424 5.56787L39.9585 5.48193C39.9943 5.22412 39.98 4.97526 39.9155 4.73535C39.8511 4.49544 39.7329 4.2985 39.561 4.14453C39.3927 3.98698 39.1654 3.90462 38.8789 3.89746C38.5817 3.88672 38.3239 3.94759 38.1055 4.08008C37.887 4.20898 37.7044 4.38444 37.5576 4.60645C37.4108 4.82487 37.2944 5.06478 37.2085 5.32617C37.1261 5.58398 37.0688 5.83643 37.0366 6.0835L37.0151 6.30908C36.9937 6.53825 37.0008 6.76921 37.0366 7.00195C37.0724 7.2347 37.1405 7.44775 37.2407 7.64111C37.3446 7.83089 37.4878 7.98665 37.6704 8.1084C37.853 8.22656 38.0786 8.28923 38.3472 8.29639C38.673 8.30355 38.9648 8.23372 39.2227 8.08691C39.484 7.93652 39.7222 7.74674 39.937 7.51758L40.4902 7.99023C40.3219 8.2373 40.1214 8.44499 39.8887 8.61328C39.6559 8.78158 39.4017 8.9069 39.126 8.98926C38.8503 9.07161 38.5638 9.111 38.2666 9.10742ZM45.2275 7.81299L46.4521 0.75H47.4297L45.9956 9H45.1094L45.2275 7.81299ZM41.7256 6.20166L41.7363 6.08887C41.7829 5.73079 41.8688 5.37272 41.9941 5.01465C42.123 4.65658 42.2967 4.32894 42.5151 4.03174C42.7336 3.73454 42.9985 3.49821 43.3101 3.32275C43.6216 3.1473 43.985 3.06494 44.4004 3.07568C44.7728 3.08643 45.0843 3.17415 45.335 3.33887C45.5856 3.50358 45.7826 3.72201 45.9258 3.99414C46.0726 4.2627 46.1711 4.55811 46.2212 4.88037C46.2749 5.20264 46.291 5.52669 46.2695 5.85254L46.2104 6.34668C46.1496 6.69401 46.0493 7.03418 45.9097 7.36719C45.77 7.7002 45.5892 8.00098 45.3672 8.26953C45.1488 8.53451 44.8856 8.74398 44.5776 8.89795C44.2733 9.05192 43.9242 9.12354 43.5303 9.11279C43.1507 9.09847 42.8356 9 42.585 8.81738C42.3379 8.63477 42.1445 8.40023 42.0049 8.11377C41.8688 7.82373 41.7793 7.51221 41.7363 7.1792C41.6969 6.84261 41.6934 6.51676 41.7256 6.20166ZM42.7246 6.07812L42.7139 6.19092C42.6888 6.40576 42.6799 6.63314 42.687 6.87305C42.6978 7.10938 42.7389 7.33317 42.8105 7.54443C42.8822 7.75212 42.9985 7.92399 43.1597 8.06006C43.3208 8.19255 43.5392 8.26416 43.8149 8.2749C44.1086 8.28206 44.3807 8.21582 44.6313 8.07617C44.882 7.93652 45.0968 7.75033 45.2759 7.51758C45.4549 7.28483 45.5838 7.03239 45.6626 6.76025L45.8721 5.45508C45.8828 5.25814 45.8595 5.07015 45.8022 4.89111C45.745 4.7085 45.659 4.54557 45.5444 4.40234C45.4334 4.25911 45.2956 4.14453 45.1309 4.05859C44.9697 3.96908 44.7889 3.92253 44.5884 3.91895C44.2876 3.9082 44.028 3.96729 43.8096 4.09619C43.5911 4.22152 43.4067 4.3916 43.2563 4.60645C43.1095 4.81771 42.9932 5.05225 42.9072 5.31006C42.8213 5.56787 42.7604 5.82389 42.7246 6.07812ZM55.3252 6.51855L56.3188 6.50781C56.2114 7.04492 56.0091 7.51042 55.7119 7.9043C55.4183 8.29818 55.0477 8.60075 54.6001 8.81201C54.1561 9.02327 53.6584 9.12174 53.1069 9.10742C52.6128 9.09668 52.1974 8.98389 51.8608 8.76904C51.5278 8.5542 51.2664 8.27132 51.0767 7.92041C50.8905 7.5695 50.7669 7.18278 50.7061 6.76025C50.6488 6.33773 50.6488 5.91162 50.7061 5.48193L50.8188 4.70312C50.8905 4.23047 51.0194 3.77572 51.2056 3.33887C51.3953 2.89844 51.6406 2.50635 51.9414 2.1626C52.2458 1.81885 52.6038 1.5485 53.0156 1.35156C53.431 1.15462 53.9019 1.06152 54.4282 1.07227C54.9546 1.08301 55.395 1.20117 55.7495 1.42676C56.104 1.65234 56.3726 1.96029 56.5552 2.35059C56.7414 2.74089 56.8416 3.18848 56.856 3.69336H55.8569C55.8462 3.36393 55.7943 3.06673 55.7012 2.80176C55.6081 2.53678 55.4559 2.32552 55.2446 2.16797C55.0334 2.01042 54.7469 1.92627 54.3853 1.91553C53.9914 1.90479 53.6458 1.97819 53.3486 2.13574C53.055 2.29329 52.8044 2.50814 52.5967 2.78027C52.389 3.04883 52.2225 3.34961 52.0972 3.68262C51.9718 4.01562 51.8823 4.35221 51.8286 4.69238L51.7104 5.4873C51.6711 5.77018 51.6567 6.07096 51.6675 6.38965C51.6782 6.70475 51.7301 7.00374 51.8232 7.28662C51.9199 7.56592 52.0739 7.79688 52.2852 7.97949C52.5 8.15853 52.79 8.25342 53.1553 8.26416C53.5563 8.27848 53.8983 8.21582 54.1812 8.07617C54.464 7.93652 54.6986 7.73421 54.8848 7.46924C55.071 7.20068 55.2178 6.88379 55.3252 6.51855ZM60.8359 7.60352L61.5986 3.18848H62.5762L61.5664 9H60.6372L60.8359 7.60352ZM61.2012 6.43262L61.5986 6.4165C61.5521 6.78174 61.4697 7.12907 61.3516 7.4585C61.2334 7.78434 61.0723 8.07438 60.8682 8.32861C60.6676 8.57926 60.417 8.7762 60.1162 8.91943C59.819 9.05908 59.4663 9.12354 59.0581 9.11279C58.7394 9.10205 58.4727 9.0376 58.2578 8.91943C58.0465 8.80127 57.88 8.64193 57.7583 8.44141C57.6366 8.24089 57.556 8.01172 57.5166 7.75391C57.4772 7.49609 57.4718 7.22396 57.5005 6.9375L58.1289 3.18848H59.1011L58.4727 6.95361C58.4583 7.11117 58.4565 7.26693 58.4673 7.4209C58.478 7.57129 58.5103 7.70915 58.564 7.83447C58.6177 7.9598 58.7 8.06185 58.811 8.14062C58.9256 8.21582 59.076 8.257 59.2622 8.26416C59.6489 8.27848 59.9766 8.20687 60.2451 8.04932C60.5137 7.88818 60.7267 7.66618 60.8843 7.3833C61.0418 7.10042 61.1475 6.78353 61.2012 6.43262ZM66.6152 7.42627C66.6475 7.20426 66.6063 7.0306 66.4917 6.90527C66.3807 6.77995 66.2339 6.68506 66.0513 6.62061C65.8722 6.55257 65.6968 6.49707 65.5249 6.4541C65.3101 6.40039 65.0934 6.33415 64.875 6.25537C64.6566 6.1766 64.4561 6.07633 64.2734 5.95459C64.0944 5.82926 63.9512 5.67529 63.8438 5.49268C63.7399 5.30648 63.6934 5.08089 63.7041 4.81592C63.7184 4.52946 63.7936 4.27702 63.9297 4.05859C64.0693 3.84017 64.2484 3.65755 64.4668 3.51074C64.6888 3.36393 64.9305 3.25472 65.1919 3.18311C65.4533 3.11149 65.7129 3.07747 65.9707 3.08105C66.3359 3.08822 66.6672 3.16341 66.9644 3.30664C67.2651 3.44987 67.5033 3.65576 67.6787 3.92432C67.8542 4.19287 67.9365 4.51872 67.9258 4.90186L66.9644 4.89648C66.9715 4.69238 66.9303 4.51693 66.8408 4.37012C66.7513 4.22331 66.6278 4.11051 66.4702 4.03174C66.3127 3.94938 66.1336 3.90641 65.9331 3.90283C65.7433 3.89925 65.5571 3.92969 65.3745 3.99414C65.1919 4.05501 65.0361 4.15169 64.9072 4.28418C64.7783 4.41309 64.6995 4.58138 64.6709 4.78906C64.6494 4.94303 64.6727 5.07015 64.7407 5.17041C64.8088 5.26709 64.9019 5.34587 65.02 5.40674C65.1418 5.46403 65.2689 5.51237 65.4014 5.55176C65.5374 5.58757 65.661 5.61979 65.772 5.64844C66.0656 5.73079 66.3556 5.83464 66.6421 5.95996C66.9285 6.08529 67.1613 6.25895 67.3403 6.48096C67.5194 6.69938 67.5999 6.98763 67.582 7.3457C67.5677 7.65007 67.4871 7.91504 67.3403 8.14062C67.1971 8.36263 67.0109 8.54704 66.7817 8.69385C66.5562 8.83708 66.3073 8.94271 66.0352 9.01074C65.763 9.07878 65.4909 9.111 65.2188 9.10742C64.8428 9.10026 64.4919 9.02327 64.166 8.87646C63.8438 8.72607 63.5859 8.51123 63.3926 8.23193C63.1992 7.94906 63.1079 7.60531 63.1187 7.20068L64.0908 7.20605C64.0908 7.4388 64.1392 7.63574 64.2358 7.79688C64.3361 7.95443 64.474 8.07438 64.6494 8.15674C64.8249 8.2391 65.0254 8.28206 65.251 8.28564C65.4408 8.28923 65.6341 8.26416 65.8311 8.21045C66.0316 8.15674 66.2035 8.06722 66.3467 7.94189C66.4935 7.81299 66.583 7.64111 66.6152 7.42627ZM71.9165 3.18848L71.7822 3.95117H68.7261L68.8604 3.18848H71.9165ZM70.1387 1.77588H71.1055L70.1226 7.57129C70.1118 7.69661 70.1154 7.80941 70.1333 7.90967C70.1512 8.00993 70.1942 8.09049 70.2622 8.15137C70.3302 8.20866 70.4341 8.2391 70.5737 8.24268C70.6525 8.24268 70.7295 8.2373 70.8047 8.22656C70.8835 8.21224 70.9622 8.19971 71.041 8.18896L70.9712 9.00537C70.8566 9.0376 70.7384 9.06087 70.6167 9.0752C70.4985 9.0931 70.3804 9.10026 70.2622 9.09668C69.965 9.0931 69.7323 9.0179 69.564 8.87109C69.3957 8.72428 69.2811 8.53451 69.2202 8.30176C69.1593 8.06901 69.1414 7.82015 69.1665 7.55518L70.1387 1.77588ZM72.1743 6.19092L72.1904 6.06738C72.2334 5.67708 72.3301 5.30111 72.4805 4.93945C72.6344 4.5778 72.8368 4.25553 73.0874 3.97266C73.3381 3.68978 73.6353 3.46777 73.979 3.30664C74.3228 3.14551 74.7059 3.07031 75.1284 3.08105C75.5366 3.08822 75.8857 3.17594 76.1758 3.34424C76.4694 3.51253 76.7057 3.73633 76.8848 4.01562C77.0674 4.29134 77.1945 4.60286 77.2661 4.9502C77.3377 5.29753 77.3556 5.6556 77.3198 6.02441L77.3091 6.14795C77.2625 6.53825 77.1623 6.91243 77.0083 7.27051C76.8543 7.62858 76.6502 7.94727 76.396 8.22656C76.1453 8.50586 75.8481 8.72607 75.5044 8.88721C75.1606 9.04476 74.7793 9.11816 74.3604 9.10742C73.9557 9.10026 73.6066 9.01432 73.313 8.84961C73.0229 8.68132 72.7884 8.45931 72.6094 8.18359C72.4303 7.90788 72.305 7.59814 72.2334 7.25439C72.1618 6.91064 72.1421 6.55615 72.1743 6.19092ZM73.1572 6.06738L73.1465 6.19629C73.1214 6.42188 73.1196 6.65641 73.1411 6.8999C73.1662 7.14339 73.2235 7.36898 73.313 7.57666C73.4061 7.78434 73.5404 7.95443 73.7158 8.08691C73.8913 8.2194 74.1187 8.28923 74.3979 8.29639C74.6951 8.30355 74.9565 8.24626 75.1821 8.12451C75.4077 7.99919 75.5993 7.83089 75.7568 7.61963C75.918 7.40837 76.0451 7.17383 76.1382 6.91602C76.2349 6.6582 76.2993 6.40218 76.3315 6.14795L76.3423 6.02441C76.3674 5.79883 76.3674 5.56429 76.3423 5.3208C76.3208 5.07373 76.2635 4.84456 76.1704 4.6333C76.0809 4.41846 75.9484 4.24479 75.7729 4.1123C75.5975 3.97624 75.3701 3.90462 75.0908 3.89746C74.7936 3.88672 74.5304 3.9458 74.3013 4.07471C74.0757 4.20003 73.8841 4.37012 73.7266 4.58496C73.569 4.7998 73.4419 5.03792 73.3452 5.29932C73.2521 5.55713 73.1895 5.81315 73.1572 6.06738ZM79.7744 4.40234L78.9795 9H78.002L79.0117 3.18848H79.9355L79.7744 4.40234ZM79.3394 5.87402L78.8989 5.86328C78.9491 5.50163 79.0386 5.15251 79.1675 4.81592C79.2964 4.47933 79.4683 4.17855 79.6831 3.91357C79.9015 3.6486 80.1647 3.44092 80.4727 3.29053C80.7806 3.14014 81.1369 3.07031 81.5415 3.08105C81.8423 3.08822 82.0965 3.1473 82.3042 3.2583C82.5119 3.36572 82.6784 3.51432 82.8037 3.7041C82.9326 3.8903 83.0186 4.10514 83.0615 4.34863C83.1081 4.59212 83.1188 4.85173 83.0938 5.12744L82.4438 9H81.4717L82.1162 5.17041C82.1449 4.92692 82.1305 4.71208 82.0732 4.52588C82.0195 4.33968 81.9175 4.19287 81.7671 4.08545C81.6167 3.97445 81.4126 3.91536 81.1548 3.9082C80.8647 3.90104 80.6123 3.95117 80.3975 4.05859C80.1862 4.16602 80.009 4.31462 79.8657 4.50439C79.7261 4.69059 79.6133 4.90365 79.5273 5.14355C79.4414 5.37988 79.3787 5.62337 79.3394 5.87402ZM83.0938 5.32617L82.3955 5.53027C82.4385 5.19727 82.528 4.88216 82.6641 4.58496C82.8037 4.28776 82.9845 4.02458 83.2065 3.79541C83.4285 3.56624 83.6864 3.38721 83.98 3.2583C84.2736 3.12939 84.5977 3.06852 84.9521 3.07568C85.2673 3.08285 85.534 3.14193 85.7524 3.25293C85.9709 3.36035 86.1445 3.50895 86.2734 3.69873C86.4059 3.88851 86.4937 4.11051 86.5366 4.36475C86.5832 4.6154 86.5903 4.88753 86.5581 5.18115L85.9189 9H84.9414L85.5859 5.16504C85.6146 4.91797 85.6021 4.70133 85.5483 4.51514C85.4982 4.32894 85.3979 4.18392 85.2476 4.08008C85.0972 3.97266 84.8895 3.91715 84.6245 3.91357C84.4132 3.90641 84.2199 3.93864 84.0444 4.01025C83.869 4.08187 83.7168 4.18392 83.5879 4.31641C83.459 4.44531 83.3516 4.5957 83.2656 4.76758C83.1833 4.93945 83.126 5.12565 83.0938 5.32617ZM89.8291 9.10742C89.4316 9.10026 89.0861 9.02148 88.7925 8.87109C88.5024 8.71712 88.2643 8.51123 88.0781 8.25342C87.8955 7.99202 87.7648 7.69482 87.686 7.36182C87.6073 7.02881 87.584 6.67969 87.6162 6.31445L87.6377 6.0835C87.6735 5.7111 87.7648 5.34587 87.9116 4.98779C88.0584 4.62614 88.2536 4.30029 88.4971 4.01025C88.7441 3.72021 89.0342 3.49105 89.3672 3.32275C89.7038 3.15088 90.0762 3.07031 90.4844 3.08105C90.889 3.08822 91.2256 3.17415 91.4941 3.33887C91.7627 3.50358 91.9722 3.72201 92.1226 3.99414C92.2765 4.2627 92.3768 4.56527 92.4233 4.90186C92.4699 5.23486 92.4735 5.57682 92.4341 5.92773L92.375 6.37354H88.1587L88.2876 5.5625L91.5049 5.56787L91.521 5.48193C91.5568 5.22412 91.5425 4.97526 91.478 4.73535C91.4136 4.49544 91.2954 4.2985 91.1235 4.14453C90.9552 3.98698 90.7279 3.90462 90.4414 3.89746C90.1442 3.88672 89.8864 3.94759 89.668 4.08008C89.4495 4.20898 89.2669 4.38444 89.1201 4.60645C88.9733 4.82487 88.8569 5.06478 88.771 5.32617C88.6886 5.58398 88.6313 5.83643 88.5991 6.0835L88.5776 6.30908C88.5562 6.53825 88.5633 6.76921 88.5991 7.00195C88.6349 7.2347 88.703 7.44775 88.8032 7.64111C88.9071 7.83089 89.0503 7.98665 89.2329 8.1084C89.4155 8.22656 89.6411 8.28923 89.9097 8.29639C90.2355 8.30355 90.5273 8.23372 90.7852 8.08691C91.0465 7.93652 91.2847 7.74674 91.4995 7.51758L92.0527 7.99023C91.8844 8.2373 91.6839 8.44499 91.4512 8.61328C91.2184 8.78158 90.9642 8.9069 90.6885 8.98926C90.4128 9.07161 90.1263 9.111 89.8291 9.10742ZM94.8457 4.14453L94.0024 9H93.0303L94.04 3.18848H94.9854L94.8457 4.14453ZM96.731 3.14014L96.6396 4.07471C96.5645 4.06038 96.4875 4.04785 96.4087 4.03711C96.3335 4.02637 96.2583 4.021 96.1831 4.021C95.9504 4.01742 95.7409 4.05322 95.5547 4.12842C95.3721 4.20003 95.2091 4.30208 95.0659 4.43457C94.9263 4.56706 94.8063 4.72282 94.7061 4.90186C94.6094 5.08089 94.5324 5.27425 94.4751 5.48193L94.1689 5.64307C94.2083 5.35303 94.2728 5.05583 94.3623 4.75146C94.4554 4.4471 94.5825 4.16602 94.7437 3.9082C94.9084 3.65039 95.1143 3.44271 95.3613 3.28516C95.612 3.1276 95.9128 3.0542 96.2637 3.06494C96.3424 3.06494 96.4194 3.0721 96.4946 3.08643C96.5734 3.10075 96.6522 3.11865 96.731 3.14014Z" fill="black"/>
</svg>
